<?xml version="1.0" encoding="utf-8"?>
<!-- Generator: Adobe Illustrator 22.1.0, SVG Export Plug-In . SVG Version: 6.00 Build 0)  -->
<svg version="1.1" id="Layer_1" xmlns="http://www.w3.org/2000/svg" xmlns:xlink="http://www.w3.org/1999/xlink" x="0px" y="0px"
	 viewBox="0 0 180.9 28.2" style="enable-background:new 0 0 180.9 28.2;" xml:space="preserve">
<style type="text/css">
	.st0{fill:#FFFFFF;}
	.st1{clip-path:url(#SVGID_2_);fill:#FFFFFF;}
</style>
<polygon class="st0" points="152.6,12.6 157.5,19.7 152.2,27.7 158.5,27.7 163.8,19.6 158.7,12.6 "/>
<polygon class="st0" points="161.2,12.5 166.1,19.5 160.8,27.6 167.1,27.6 172.4,19.5 167.3,12.5 "/>
<polygon class="st0" points="169.8,12.5 174.6,19.5 169.3,27.6 175.6,27.6 180.9,19.5 175.9,12.5 "/>
<polygon class="st0" points="22.2,12.6 17.1,19.6 22.5,27.7 28.7,27.7 23.4,19.7 28.3,12.6 "/>
<polygon class="st0" points="13.6,12.5 8.5,19.5 13.9,27.6 20.1,27.6 14.8,19.5 19.7,12.5 "/>
<polygon class="st0" points="5.1,12.5 0,19.5 5.3,27.6 11.6,27.6 6.3,19.5 11.2,12.5 "/>
<polygon class="st0" points="86.8,12.7 80.9,28.2 86.3,28.2 89.4,18.3 92.6,28.2 98.6,28.2 92.8,12.7 "/>
<g>
	<defs>
		<rect id="SVGID_1_" width="180.9" height="28.2"/>
	</defs>
	<clipPath id="SVGID_2_">
		<use xlink:href="#SVGID_1_"  style="overflow:visible;"/>
	</clipPath>
	<path class="st1" d="M133.9,19.3c0,5.7,3.5,8.9,9.1,8.9c6.5,0,8.8-3.3,8.7-8.6C151.6,9,134,8.8,133.9,19.3 M142.7,24.8
		c-2.9-0.1-2.8-5.5-2-8.1c0.2-0.7,1.2-1.2,2-1.2c0.9,0,1.7,0.3,2,1.1C145.8,20.3,145.2,24.9,142.7,24.8"/>
	<path class="st1" d="M131.8,17.7h-5.4c0-1,0.1-2.3-1.7-2.7c-3.5-0.4-3.6,9.9-0.1,9.6c1.6-0.2,1.7-1.4,1.8-3.1l5.5,0
		c0.3,2.3-0.7,3.8-1.8,4.9c-1.3,1.2-3.3,1.8-5.8,1.8c-2.5,0-4.4-0.6-5.7-1.8c-1.6-1.4-2.4-3.6-2.4-6.5c0-2.8,0.8-5,2.5-6.4
		c1.4-1.2,3.4-1.8,5.9-1.8c2.3,0,4.1,0.5,5.4,1.6C131.7,14.8,131.9,15.7,131.8,17.7"/>
	<path class="st1" d="M63.3,19.3c0,5.7,3.5,8.9,9.1,8.9c6.5,0,8.8-3.3,8.7-8.6C81,9,63.4,8.8,63.3,19.3 M72.1,24.8
		c-2.9-0.1-2.8-5.5-2-8.1c0.2-0.7,1.2-1.2,2-1.2c0.9,0,1.8,0.3,2,1.1C75.2,20.3,74.6,24.9,72.1,24.8"/>
	<polygon class="st1" points="50.8,19.4 50.4,21.3 51.6,22.4 56,28.2 63,28.2 57.5,20.2 62.4,12.8 56,12.8 51.7,18.4 	"/>
	<path class="st1" d="M51.6,17.1c-0.4-4.7-3.8-8.2-8.5-8.2c-0.8,0-1.7,0.1-2.5,0.3c-0.9,0.2-1.7,0.5-2.6,0.9l0-4.2h11.9V0H30.2
		l0,16.3l7.2,0c1-2.4,3.7-2.4,4.9-1.6c1.1,0.8,1.4,2.4,1.5,3.8c0.2,3.9-5.2,6-7.3,1.1l-7.4,0c0.8,2.7,1.3,4.7,3.7,6.5
		c0.9,0.7,2.1,1.2,3.4,1.6c1.3,0.3,2.9,0.5,4.8,0.5c2.6,0,4.2-0.4,5.9-1.3c1.7-0.9,2.9-2.6,3.5-3.7C51,22,51.7,19.5,51.6,17.1"/>
	<path class="st1" d="M114.7,21.6h-10.2v0.1c0,3.4,3.7,4.3,5,1.6l4.9,0c0.3,4-5,4.9-7.5,4.9c-2.3,0-4.3-0.5-5.6-1.5
		c-1.7-1.4-2.5-3.7-2.5-6.3c0-2.8,0.8-4.5,2.1-6.3c1.9-2.5,8.3-3,10.9-0.9c1.5,1.2,2.3,2.9,2.6,5.1
		C114.6,18.9,114.7,20.4,114.7,21.6 M109.6,18.5c0-0.2,0-0.3,0-0.4c0-1-0.2-1.7-0.7-2.2c-0.4-0.5-1.1-0.8-1.9-0.8
		c-1.1,0-1.9,0.5-2.3,1.5c-0.1,0.4-0.2,1-0.3,1.8H109.6z"/>
	<path class="st1" d="M52.1,8.1V0.2h2.7v6h1.9v-6h2.7v6h1.9v-6h2.7v7.9H52.1z M68.2,7.2v0.8h-2.7V0.2h2.7v3.2c0,0.4,0,0.9-0.1,1.5
		c0.3-0.6,0.6-1.2,1-1.7L70.5,1V0.2h2.7v7.9h-2.7V4.9c0-0.5,0-1,0.1-1.5c-0.3,0.5-0.6,1.1-1,1.7L68.2,7.2z M82.3,0.2v7.9h-2.7V5
		h-2.1v3.1h-2.7V0.2h2.7v2.9h2.1V0.2H82.3z M87.8,8.2c-1.3,0-2.3-0.4-3.1-1.1c-0.8-0.7-1.2-1.7-1.2-3c0-1.2,0.4-2.2,1.1-2.9
		C85.4,0.4,86.5,0,87.8,0c1.2,0,2.3,0.4,3,1.1C91.6,1.9,92,2.8,92,4c0,1.3-0.4,2.3-1.2,3C90.1,7.8,89,8.2,87.8,8.2 M87.8,6.4
		c0.5,0,0.8-0.2,1-0.5c0.2-0.4,0.3-1,0.3-2c0-1.4-0.4-2.1-1.2-2.1c-0.9,0-1.3,0.8-1.3,2.4C86.5,5.7,86.9,6.4,87.8,6.4 M102.9,0.2
		v7.9h-2.5V2.4l-1.7,5.7H97l-1.7-5.7v5.7h-2.1V0.2h3.6l1.3,4.2l1.2-4.2H102.9z M108.4,8.2c-1.3,0-2.3-0.4-3.1-1.1
		c-0.8-0.7-1.2-1.7-1.2-3c0-1.2,0.4-2.2,1.1-2.9c0.8-0.8,1.8-1.2,3.1-1.2c1.2,0,2.3,0.4,3,1.1c0.8,0.7,1.2,1.7,1.2,2.9
		c0,1.3-0.4,2.3-1.2,3C110.7,7.8,109.7,8.2,108.4,8.2 M108.4,6.4c0.5,0,0.8-0.2,1-0.5c0.2-0.4,0.3-1,0.3-2c0-1.4-0.4-2.1-1.2-2.1
		c-0.9,0-1.3,0.8-1.3,2.4C107.1,5.7,107.5,6.4,108.4,6.4 M121.4,0.2v7.9h-2.7V5h-2.1v3.1h-2.7V0.2h2.7v2.9h2.1V0.2H121.4z
		 M126.7,2.1v6h-2.6v-6h-1.8V0.2h6.3v1.9H126.7z M134,8.1l-0.5-1.6h-2.4l-0.5,1.6h-2.2l2.8-7.9h2.9l2.8,7.9H134z M131.5,4.8h1.4
		l-0.7-2.3L131.5,4.8z M146.8,3.6l3.2,4.5h-2.8l-2.4-3.3l-0.4,0.1v3.2H142V4.9l-0.4-0.1l-2.4,3.3h-2.6l3.1-3.9l-2.8-4h2.7l2,3.2
		l0.4,0.1V0.2h2.4v3.3l0.4-0.1l2-3.2h2.5L146.8,3.6z"/>
</g>
</svg>
